<?xml version="1.0" encoding="UTF-8"?>
<!-- Generator: https://ezgif.com/png-to-svg -->
<svg version="1.1" xmlns="http://www.w3.org/2000/svg" width="1024" height="1024">
<path d="M0 0 C15.29 -0.16 30.57 -0.28 45.86 -0.35 C53.03 -0.39 60.21 -0.43 67.38 -0.51 C74.24 -0.58 81.11 -0.62 87.98 -0.63 C90.55 -0.64 93.12 -0.66 95.69 -0.7 C99.24 -0.74 102.8 -0.74 106.35 -0.74 C107.39 -0.76 108.43 -0.78 109.5 -0.81 C116.14 -0.73 119.51 0.7 124.26 5.38 C127.15 8.77 127.04 11.61 126.98 15.93 C125.11 37.2 115.49 60.77 103.83 78.45 C103.36 79.16 102.89 79.88 102.41 80.61 C95.42 90.83 86.49 99.47 77.77 108.2 C76.81 109.17 75.86 110.13 74.91 111.1 C74 112 73.1 112.9 72.18 113.83 C71.36 114.65 70.55 115.47 69.72 116.31 C67.7 118.08 67.7 118.08 65.7 118.08 C65.37 119.07 65.04 120.06 64.7 121.08 C63.06 122.76 61.39 124.43 59.7 126.08 C57.07 130.02 56.76 133.38 56.7 138.08 C57.42 141.79 57.42 141.79 58.7 145.08 C59.01 146.02 59.32 146.97 59.64 147.95 C59.99 148.65 60.34 149.35 60.7 150.08 C61.69 150.41 62.68 150.74 63.7 151.08 C63.7 151.74 63.7 152.4 63.7 153.08 C64.24 153.29 64.78 153.5 65.34 153.72 C68.58 155.58 70.95 158.16 73.52 160.83 C78.18 165.62 78.18 165.62 83.27 169.95 C92.69 177.79 99.73 189.57 105.7 200.08 C106.07 200.71 106.43 201.34 106.81 201.99 C116.93 219.76 128.73 244.13 126.7 265.08 C124.92 270.33 122.52 272.43 117.7 275.08 C114.82 275.45 112.33 275.61 109.46 275.58 C108.65 275.58 107.83 275.59 106.99 275.59 C104.27 275.61 101.55 275.59 98.83 275.58 C96.88 275.58 94.93 275.59 92.97 275.59 C87.68 275.61 82.38 275.6 77.08 275.58 C71.53 275.57 65.99 275.57 60.44 275.58 C51.13 275.58 41.82 275.57 32.5 275.54 C21.74 275.52 10.97 275.51 0.2 275.53 C-10.16 275.54 -20.51 275.53 -30.87 275.52 C-35.28 275.51 -39.69 275.51 -44.1 275.51 C-49.29 275.52 -54.48 275.51 -59.67 275.49 C-61.57 275.48 -63.48 275.48 -65.38 275.49 C-67.98 275.49 -70.58 275.48 -73.18 275.46 C-74.31 275.47 -74.31 275.47 -75.47 275.48 C-79.93 275.43 -82.73 274.79 -86.3 272.08 C-89.42 268.7 -90.61 265.9 -90.86 261.39 C-89.72 233.43 -73.91 206.15 -58.48 183.8 C-57.41 182.23 -56.35 180.66 -55.3 179.08 C-54.64 179.08 -53.98 179.08 -53.3 179.08 C-52.93 178.23 -52.93 178.23 -52.56 177.36 C-51.05 174.62 -49.22 172.74 -47.01 170.53 C-46.17 169.68 -45.33 168.84 -44.46 167.97 C-43.58 167.1 -42.7 166.22 -41.8 165.33 C-40.92 164.44 -40.04 163.55 -39.13 162.63 C-38.29 161.79 -37.44 160.96 -36.58 160.09 C-35.8 159.32 -35.03 158.55 -34.24 157.76 C-32.3 156.08 -32.3 156.08 -30.3 156.08 C-30.3 155.42 -30.3 154.76 -30.3 154.08 C-29.37 153.35 -28.44 152.63 -27.48 151.89 C-24.12 149.14 -22.22 146.35 -21.3 142.08 C-20.77 135.81 -20.7 129.92 -23.3 124.08 C-23.96 124.08 -24.62 124.08 -25.3 124.08 C-26.98 122.43 -28.65 120.76 -30.3 119.08 C-31.29 118.58 -31.29 118.58 -32.3 118.08 C-32.3 117.42 -32.3 116.76 -32.3 116.08 C-33.29 115.75 -34.28 115.42 -35.3 115.08 C-35.3 114.42 -35.3 113.76 -35.3 113.08 C-36.18 112.68 -36.18 112.68 -37.07 112.28 C-40.99 110.16 -43.87 106.84 -46.98 103.7 C-47.7 102.98 -48.42 102.26 -49.16 101.51 C-70.98 79.19 -89.16 44.69 -90.8 13.08 C-90.7 9.06 -90.45 8.28 -87.86 4.95 C-87.01 4.33 -86.17 3.71 -85.3 3.08 C-84.97 2.75 -84.64 2.42 -84.3 2.08 C-76.68 1.08 -68.97 0.89 -61.3 0.76 C-60.21 0.74 -59.13 0.72 -58.01 0.69 C-43.22 0.42 -28.43 0.27 -13.64 0.14 C-9.09 0.09 -4.55 0.05 0 0 Z " fill="#1C6269" transform="translate(493.2960205078125,373.92462158203125)"/>
<path d="M0 0 C-0.55 6.13 -1.91 11.43 -4.06 17.19 C-4.37 18.02 -4.68 18.85 -5 19.7 C-10.87 34.85 -20.68 45.87 -32.16 57.05 C-32.8 57.67 -33.44 58.3 -34.1 58.94 C-39.4 64.12 -39.4 64.12 -42.07 66.68 C-53.09 77.25 -63.95 88.52 -65.3 104.58 C-65.34 118.4 -62.8 129.11 -53.56 139.56 C-53.03 140.17 -52.5 140.78 -51.95 141.41 C-50.31 143.28 -48.66 145.14 -47 147 C-46.27 147.82 -46.27 147.82 -45.52 148.65 C-40.84 153.89 -36.07 159 -31 163.88 C-20.22 174.29 -12.34 184.37 -6.12 198.06 C-5.71 198.96 -5.71 198.96 -5.29 199.88 C-3.5 204.08 -2.41 208.31 -1.41 212.77 C-1.01 214.52 -1.01 214.52 -0.6 216.31 C-0.4 217.2 -0.21 218.08 0 219 C-23.03 219.72 -46.05 220.24 -69.09 220.53 C-71.48 220.56 -73.87 220.59 -76.27 220.63 C-101.85 220.97 -127.42 221.14 -153 221 C-149.71 203.3 -143.31 186.68 -130.59 173.66 C-128.59 171.61 -126.74 169.54 -124.88 167.36 C-119.79 161.5 -114.14 156.16 -108.54 150.79 C-96.76 139.46 -88.1 127.49 -87.44 110.69 C-87.89 96.89 -92.58 86.94 -102 77 C-103.19 75.7 -104.39 74.4 -105.58 73.11 C-111.02 67.22 -116.51 61.41 -122.27 55.84 C-136.63 41.98 -147.12 26.72 -152 7 C-152.03 5 -152.03 3 -152 1 C-151.16 0.99 -150.32 0.98 -149.46 0.97 C-141.37 0.87 -133.29 0.77 -125.21 0.66 C-121.06 0.61 -116.91 0.55 -112.75 0.5 C-94.03 0.27 -75.31 -0.03 -56.6 -0.66 C-37.72 -1.28 -18.83 -1.58 0 0 Z " fill="#87DCD9" transform="translate(588,401)"/>
<path d="M0 0 C5.05 -0.01 10.1 -0.03 15.16 -0.05 C22.06 -0.08 28.96 -0.09 35.86 -0.09 C38.44 -0.09 41.03 -0.1 43.62 -0.11 C47.19 -0.13 50.76 -0.13 54.32 -0.12 C55.38 -0.13 56.44 -0.14 57.52 -0.15 C58.97 -0.14 58.97 -0.14 60.44 -0.13 C61.69 -0.13 61.69 -0.13 62.97 -0.14 C65.57 0.32 66.46 1.22 68.11 3.24 C41.56 3.37 15.01 3.5 -11.53 3.63 C-23.86 3.69 -36.18 3.75 -48.51 3.81 C-59.25 3.86 -69.99 3.91 -80.73 3.97 C-86.42 3.99 -92.11 4.02 -97.8 4.05 C-103.15 4.08 -108.5 4.1 -113.85 4.13 C-115.82 4.14 -117.78 4.15 -119.75 4.16 C-122.43 4.17 -125.11 4.18 -127.79 4.2 C-128.97 4.2 -128.97 4.2 -130.17 4.21 C-133.08 4.22 -135.98 4.24 -138.89 4.24 C-136.32 1.66 -135.04 1.87 -131.46 1.63 C-130.37 1.56 -129.29 1.48 -128.17 1.41 C-123.41 1.16 -118.66 1 -113.9 0.92 C-112.81 0.9 -111.72 0.88 -110.6 0.86 C-106.89 0.79 -103.17 0.73 -99.46 0.67 C-98.15 0.65 -96.84 0.63 -95.49 0.61 C-63.66 0.14 -31.83 0.06 0 0 Z " fill="#739092" transform="translate(545.8929594159126,373.7648029923439)"/>
<path d="M0 0 C1.54 0.04 3.09 0.08 4.63 0.12 C5.47 0.14 6.31 0.17 7.18 0.19 C9.97 0.26 12.76 0.34 15.54 0.41 C17.47 0.46 19.4 0.51 21.32 0.56 C25.35 0.66 29.38 0.77 33.41 0.88 C42.44 1.11 51.46 1.32 60.49 1.53 C64.97 1.64 69.45 1.75 73.93 1.85 C75.43 1.89 76.93 1.93 78.43 1.96 C80 2 80 2 81.61 2.04 C81.61 2.37 81.61 2.7 81.61 3.04 C52.58 4.68 23.68 5.31 -5.39 5.04 C-4.27 0.05 -4.27 0.05 0 0 Z " fill="#A1E8E7" transform="translate(440.394287109375,616.96240234375)"/>
<path d="M0 0 C0 0.66 0 1.32 0 2 C-29.56 2.09 -59.12 1.83 -88.68 1.54 C-94.83 1.47 -100.98 1.42 -107.13 1.36 C-119.08 1.24 -131.04 1.12 -143 1 C-143 0.67 -143 0.34 -143 0 C-39.69 -1.83 -39.69 -1.83 0 0 Z " fill="#A9EAE9" transform="translate(587,402)"/>
<path d="M0 0 C0 3.87 -1.57 4.93 -4.19 7.58 C-5.1 8.47 -5.1 8.47 -6.02 9.38 C-6.63 10 -7.25 10.61 -7.88 11.25 C-9.18 12.55 -10.49 13.84 -11.8 15.13 C-13.8 17.12 -15.79 19.11 -17.78 21.11 C-19.05 22.37 -20.31 23.62 -21.58 24.88 C-22.48 25.78 -22.48 25.78 -23.39 26.69 C-27.65 30.88 -27.65 30.88 -31 32 C-31 31.34 -31 30.68 -31 30 C-30.34 30 -29.68 30 -29 30 C-28.76 29.43 -28.52 28.87 -28.27 28.28 C-26.75 25.55 -24.93 23.67 -22.72 21.45 C-21.46 20.19 -21.46 20.19 -20.17 18.89 C-19.29 18.02 -18.41 17.15 -17.5 16.25 C-16.62 15.36 -15.74 14.47 -14.83 13.56 C-13.99 12.72 -13.15 11.88 -12.28 11.02 C-11.51 10.25 -10.74 9.47 -9.94 8.68 C-8 7 -8 7 -6 7 C-6 6.34 -6 5.68 -6 5 C-4.04 3.29 -2.04 1.62 0 0 Z " fill="#6D989C" transform="translate(469,523)"/>
<path d="M0 0 C0.33 0 0.66 0 1 0 C0.4 5.27 -0.81 9.94 -2.56 14.94 C-2.8 15.62 -3.03 16.31 -3.27 17.01 C-3.84 18.68 -4.42 20.34 -5 22 C-7.46 19.54 -8 17.29 -9 14 C-9.66 14 -10.32 14 -11 14 C-10.67 13.34 -10.34 12.68 -10 12 C-6.94 11.38 -6.94 11.38 -4 11 C-2.68 7.37 -1.36 3.74 0 0 Z " fill="#81A6A9" transform="translate(616,402)"/>
<path d="M0 0 C0.66 0 1.32 0 2 0 C2 0.66 2 1.32 2 2 C3.32 1.67 4.64 1.34 6 1 C6 2.32 6 3.64 6 5 C3.13 4.43 2.14 4.14 0 2 C0 1.34 0 0.68 0 0 Z " fill="#3A777D" transform="translate(415,378)"/>
</svg>
